<?xml version="1.0" standalone="no"?>
<!DOCTYPE svg PUBLIC "-//W3C//DTD SVG 1.1//EN" "http://www.w3.org/Graphics/SVG/1.1/DTD/svg11.dtd" >
<svg xmlns="http://www.w3.org/2000/svg">
<metadata>Generated by IcoMoon</metadata>
<defs>
<font id="saval" horiz-adv-x="1024">
<font-face units-per-em="1024" ascent="960" descent="-64" />
<missing-glyph horiz-adv-x="1024" />
<glyph unicode="&#x20;" horiz-adv-x="512" d="" />
<glyph unicode="&#xe900;" glyph-name="Correo" d="M1024 32h-1024v832h1024zM64 96h896v704h-896zM293.44 560.64l54.72-32-192-320-54.72 32zM512 412.16l-398.080 199.36 28.48 57.28 369.6-184.96 369.92 184.96 28.48-57.28zM731.52 560.64l192-320-54.72-32-192 320z" />
<glyph unicode="&#xe901;" glyph-name="Geo-01" d="M262.72 347.84c-63.511 65.471-102.663 154.883-102.663 253.44s39.152 187.969 102.752 253.532l-0.089-0.092c63.063 64.965 151.21 105.28 248.773 105.28 0.178 0 0.357 0 0.535 0h-0.028c0.096 0 0.209 0 0.323 0 97.52 0 185.624-40.317 248.553-105.193l0.085-0.088c63.511-65.471 102.663-154.883 102.663-253.44s-39.152-187.969-102.752-253.532l0.089 0.092-46.4 44.8c51.902 53.831 83.877 127.181 83.877 208s-31.975 154.169-83.965 208.091l0.088-0.091c-51.437 53.112-123.402 86.080-203.066 86.080-0.047 0-0.094 0-0.141 0h0.007c-0.235 0.001-0.513 0.001-0.791 0.001-79.121 0-150.664-32.446-202.048-84.759l-0.041-0.042c-51.902-53.831-83.877-127.181-83.877-208s31.975-154.169 83.965-208.091l-0.088 0.091zM512-60.48l-187.2 298.24 54.4 33.92 132.8-212.48 132.8 212.48 54.4-33.92zM512 416c-106.039 0-192 85.961-192 192s85.961 192 192 192c106.039 0 192-85.961 192-192v0c0-106.039-85.961-192-192-192v0zM512 736c-70.692 0-128-57.308-128-128s57.308-128 128-128c70.692 0 128 57.308 128 128v0c0 70.692-57.308 128-128 128v0z" />
<glyph unicode="&#xe902;" glyph-name="Lupa-02" d="M563.883 733.082c-25.487 0-46.148-20.661-46.148-46.148s20.661-46.148 46.148-46.148v0c77.787-0.078 140.825-63.115 140.902-140.895v-0.008c0-25.487 20.661-46.148 46.148-46.148s46.148 20.661 46.148 46.148v0c-0.155 128.73-104.469 233.044-233.184 233.199h-0.015zM588.937 885.999c-199.267-0.388-360.704-161.801-361.131-361.022v-0.041c-0.001-0.226-0.001-0.493-0.001-0.761 0-79.613 26.003-153.152 69.978-212.589l-0.687 0.972-206.643-206.643c-10.168-10.168-16.457-24.215-16.457-39.731 0-31.032 25.156-56.188 56.188-56.188 15.516 0 29.563 6.289 39.731 16.457v0l206.643 206.643c58.439-43.247 131.937-69.223 211.502-69.223 0.308 0 0.616 0 0.924 0.001h-0.048c199.409 0 361.062 161.653 361.062 361.062s-161.653 361.062-361.062 361.062v0zM588.937 263.066c-144.627 0-261.871 117.244-261.871 261.871s117.244 261.871 261.871 261.871c144.627 0 261.871-117.244 261.871-261.871v0c-0.155-144.565-117.306-261.716-261.856-261.871h-0.015z" />
<glyph unicode="&#xe903;" glyph-name="Menu-02" d="M211.217 746.325h601.498c33.97 0 61.508-27.538 61.508-61.508v-6.69c0-33.97-27.538-61.508-61.508-61.508h-601.498c-33.97 0-61.508 27.538-61.508 61.508v6.69c0 33.97 27.538 61.508 61.508 61.508zM211.217 512.853h601.498c33.97 0 61.508-27.538 61.508-61.508v-6.69c0-33.97-27.538-61.508-61.508-61.508h-601.498c-33.97 0-61.508 27.538-61.508 61.508v6.69c0 33.97 27.538 61.508 61.508 61.508zM211.217 279.381h601.498c33.97 0 61.508-27.538 61.508-61.508v-6.69c0-33.97-27.538-61.508-61.508-61.508h-601.498c-33.97 0-61.508 27.538-61.508 61.508v6.69c0 33.97 27.538 61.508 61.508 61.508z" />
<glyph unicode="&#xe904;" glyph-name="Perfil-02" d="M510.362 924.16v0c-264.055-2.731-467.354-201.114-472.951-461.483-2.867-134.076 44.1-257.775 132.301-348.16 86.679-87.714 206.86-142.156 339.758-142.541h2.258c131.112 0.044 249.732 53.495 335.294 139.778l0.032 0.032c86.368 85.039 139.879 203.232 139.879 333.923 0 0.205 0 0.411 0 0.616v-0.032c-0.614 263.1-214.357 477.662-476.57 477.867zM899.004 445.815c0-0.042 0-0.091 0-0.14 0-106.424-43.588-202.668-113.887-271.853l-0.050-0.050c-69.687-70.36-166.267-113.976-273.035-114.142h-1.807c-108.495 0.21-206.594 44.55-277.335 116.020l-0.033 0.033c-72.977 74.342-109.978 173.193-107.725 285.15 4.506 211.627 170.667 373.214 385.707 375.467 213.606-0.273 387.755-175.445 388.164-390.485zM603.819 448c1.161 1.092 2.389 2.116 3.55 3.209 24.41 24.142 39.527 57.638 39.527 94.664 0 0.080 0 0.16 0 0.239v-0.012c-0.037 75.541-61.052 136.82-136.489 137.284h-0.044c-0.012 0-0.025 0-0.039 0-37.67 0-71.756-15.348-96.345-40.132l-0.009-0.009c-24.661-24.338-39.936-58.133-39.936-95.496 0-0.027 0-0.054 0-0.082v0.004c-0.001-0.231-0.002-0.505-0.002-0.778 0-38.885 16.255-73.973 42.341-98.84l0.055-0.052c-58.016-21.661-105.035-61.549-135.186-112.585l-0.664-1.216c-4.222-6.039-6.746-13.536-6.746-21.623 0-10.145 3.973-19.362 10.448-26.181l-0.016 0.017c58.573-68.267 134.554-103.765 225.758-106.291h1.502c91.273 2.731 166.98 38.434 225.28 106.086 6.396 6.807 10.325 15.997 10.325 26.104 0 7.818-2.351 15.088-6.385 21.139l0.088-0.14c-31.363 52.434-78.684 92.541-135.174 114.073l-1.838 0.615z" />
<glyph unicode="&#xe905;" glyph-name="Telefeno" horiz-adv-x="1009" d="M256.954 188.82c-190.807 190.807-249.322 462.39-131.339 617.58l-50.564 38.798c-138.971-183.175-80.139-484.651 138.335-702.171 135.791-135.473 303.384-207.662 453.486-207.662 2.036-0.039 4.438-0.062 6.844-0.062 88.379 0 169.675 30.321 234.055 81.128l-0.8-0.609-40.070 49.61c-150.738-121.481-418.504-67.419-609.948 123.389zM722.206 421.923l-86.817-88.089c-32.024-32.159-76.336-52.058-125.297-52.058s-93.273 19.9-125.291 52.052l-0.006 0.006c-32.079 32.298-51.905 76.8-51.905 125.933s19.826 93.635 51.915 125.943l-0.010-0.010 88.089 88.407-286.211 286.211-44.204-45.158 240.417-241.371-42.296-43.568c-43.509-43.794-70.4-104.143-70.4-170.773s26.891-126.979 70.413-170.786l-0.013 0.013c43.552-43.779 103.839-70.872 170.455-70.872s126.903 27.093 170.445 70.862l0.010 0.010 40.706 43.25 240.417-241.053 45.794 44.84z" />
<glyph unicode="&#xe906;" horiz-adv-x="1177" d="M1032.214 313.84h-84.877v84.877c0 27.38-21.904 49.283-49.283 49.283s-49.283-21.904-49.283-49.283v-84.877h-84.877c-27.38 0-49.283-21.904-49.283-49.283s21.904-49.283 49.283-49.283h84.877v-84.877c0-27.38 21.904-49.283 49.283-49.283s49.283 21.904 49.283 49.283v84.877h84.877c27.38 0 49.283 21.904 49.283 49.283s-21.904 49.283-49.283 49.283z" />
<glyph unicode="&#xe907;" horiz-adv-x="1177" d="M1081.497 864.171c-127.316 127.316-335.401 127.316-464.086 0l-28.749-30.118-24.642 24.642c-62.973 62.973-151.957 99.936-242.31 98.567-88.984 0-171.123-35.594-231.358-97.198-123.209-127.316-120.471-334.032 4.107-458.61l444.92-444.92c13.69-13.69 30.118-20.535 49.283-20.535s35.594 6.845 49.283 20.535l124.578 124.578c13.69 13.69 13.69 35.594 0 47.914-13.69 13.69-35.594 13.69-47.914 0l-125.947-124.578-444.92 444.92c-98.567 98.567-101.305 261.476-4.107 362.781 46.545 49.283 112.257 76.663 182.075 76.663 72.556 1.369 143.743-27.38 194.396-79.401l72.556-72.556 78.032 78.032c101.305 101.305 265.583 101.305 366.888 0s101.305-265.583 0-366.888c-13.69-13.69-13.69-35.594 0-47.914 13.69-13.69 35.594-13.69 47.914 0 128.684 128.684 128.684 336.77 0 464.086z" />
<glyph unicode="&#xe908;" horiz-adv-x="1177" d="M219.037 736.856c-16.428 9.583-36.963 5.476-46.545-10.952-30.118-47.914-53.39-167.016 68.449-273.797 6.845-5.476 15.059-8.214 21.904-8.214 9.583 0 19.166 4.107 26.011 10.952 12.321 13.69 10.952 35.594-2.738 47.914-105.412 93.091-60.235 177.968-54.759 187.551 9.583 15.059 4.107 36.963-12.321 46.545z" />
<glyph unicode="&#xe909;" horiz-adv-x="798" d="M794.73 44.022c-9.92 37.477-36.375 58.42-73.851 63.931-93.692 13.227-182.975 42.988-268.952 83.772-34.17 16.534-48.499 41.886-49.602 78.26-1.102 54.011-2.205 106.919-2.205 160.93 0 28.659 2.205 57.318 7.716 84.874 0 2.205 1.102 4.409 1.102 6.614-23.147-26.454-52.909-37.477-66.136-40.784 0-3.307-1.102-6.614-1.102-9.92 1.102-72.749 0-144.396 3.307-217.145 2.205-51.806 28.659-91.488 77.158-114.635 90.385-42.988 185.18-73.851 284.383-89.283 3.307-1.102 7.716-1.102 11.023-2.205 14.329-4.409 22.045-14.329 20.943-29.761-1.102-13.227-12.125-25.352-26.454-25.352-68.34 0-136.68-1.102-205.020 0-13.227 0-26.454 8.818-39.681 11.023-27.557 5.511-54.011 13.227-82.67 15.432-65.033 7.716-131.169-2.205-197.305-20.943-62.829-17.636-117.942 17.636-128.964 76.056-5.511 29.761 1.102 58.42 9.92 85.976 12.125 36.375 26.454 72.749 34.17 110.226 15.432 82.67 16.534 166.441-1.102 250.213-25.352 123.453-19.841 246.906 18.738 367.053 3.307 8.818 5.511 14.329 16.534 14.329 83.772 0 167.544 0 251.315 0 2.205 0 4.409-1.102 9.92-1.102-4.409-60.624-7.716-120.146-15.432-178.566-1.102-7.716-2.205-16.534-3.307-24.25 7.716-5.511 35.272-25.352 50.704-56.215 14.329 92.59 22.045 185.18 25.352 279.974 1.102 27.557-8.818 37.477-38.579 37.477-50.704 0-101.408 0-152.112 0-51.806 0-102.51 0-154.316 0-17.636 0-27.557-7.716-34.17-24.25-47.397-131.169-61.727-265.645-33.068-403.427 15.432-77.158 20.943-154.316 6.614-231.475-7.716-42.988-23.147-84.874-36.375-126.76-15.432-48.499-20.943-95.897 1.102-143.294 33.068-73.851 110.226-108.022 193.998-84.874 57.318 16.534 114.635 25.352 173.055 20.943 23.147-2.205 45.193-6.614 68.34-12.125 22.045-4.409 44.090-15.432 67.238-15.432 66.136-2.205 131.169-2.205 197.305 0 17.636 1.102 38.579 8.818 52.909 18.738 27.557 19.841 36.375 51.806 27.557 85.976z" />
<glyph unicode="&#xe90a;" horiz-adv-x="798" d="M439.802 723.014c-26.454 25.352-50.704 37.477-50.704 37.477l-9.92-55.113-1.102-5.511c0 0 84.874-52.909 57.318-132.271-20.943-61.727-78.26-81.567-94.794-85.976v0l1.102-51.806c0 0 4.409-2.205 31.966 3.307 0 0 92.59 18.738 123.453 122.351 24.25 78.26-31.966 142.192-57.318 167.544z" />
<glyph unicode="&#xe90b;" horiz-adv-x="798" d="M624.982 573.107l-56.215 7.716c-15.432 2.205-28.659-8.818-30.863-23.147-2.205-15.432 8.818-28.659 23.147-30.863l56.215-7.716c1.102 0 2.205 0 4.409 0 13.227 0 25.352 9.92 27.557 23.147 1.102 15.432-8.818 28.659-24.25 30.863z" />
<glyph unicode="&#xe90c;" horiz-adv-x="798" d="M545.619 672.31c5.511 0 11.023 2.205 16.534 5.511l47.397 35.272c12.125 8.818 14.329 26.454 5.511 38.579s-26.454 14.329-38.579 5.511l-47.397-35.272c-12.125-8.818-14.329-26.454-5.511-38.579 5.511-7.716 14.329-11.023 22.045-11.023z" />
<glyph unicode="&#xe90d;" horiz-adv-x="798" d="M518.062 445.244c-8.818 12.125-26.454 14.329-38.579 5.511s-14.329-26.454-5.511-38.579l31.966-41.886c5.511-7.716 13.227-11.023 22.045-11.023 5.511 0 11.023 2.205 16.534 5.511 12.125 8.818 14.329 26.454 5.511 38.579l-31.966 41.886z" />
<glyph unicode="&#xe90e;" horiz-adv-x="843" d="M838.407 574.786c-17.264 111.14-118.693 202.858-230.913 208.253-55.031 2.158-110.061-8.632-168.329-35.608-19.423-8.632-39.924-10.79-62.584-7.553-45.319 6.474-73.374 29.134-84.164 66.9-8.632 31.292-15.106 62.584-19.423 94.955-3.237 20.502-11.869 34.529-28.055 45.319-20.502 12.948-46.398 16.185-70.137 8.632-23.739-6.474-43.161-22.66-53.952-43.161-6.474-11.869-9.711-25.897-8.632-38.845 1.079-19.423 4.316-38.845 6.474-57.189l2.158-15.106c12.948-87.401 49.635-149.985 112.219-188.83 17.264-10.79 36.687-19.423 56.11-26.976 7.553-3.237 15.106-6.474 21.581-9.711v-17.264c0-16.185 0-33.45 0-49.635 0-7.553 1.079-15.106 1.079-22.66 1.079-10.79 1.079-21.581 1.079-33.45-2.158-37.766-20.502-63.663-56.11-77.69-17.264-6.474-33.45-17.264-48.556-26.976-7.553-4.316-15.106-9.711-22.66-14.027-3.237-2.158-6.474-4.316-9.711-4.316-58.268-6.474-100.35-36.687-127.326-90.639-33.45-67.979-49.635-144.59-48.556-239.545 0-5.395 2.158-11.869 4.316-15.106 16.185-30.213 48.556-47.477 82.006-47.477 4.316 0 8.632 0 14.027 1.079 39.924 6.474 66.9 35.608 66.9 76.611 1.079 45.319 9.711 91.718 25.897 138.116 2.158 5.395 5.395 9.711 9.711 15.106 1.079 1.079 2.158 2.158 3.237 3.237 26.976-21.581 58.268-37.766 92.797-47.477 79.848-23.739 164.013-20.502 265.442 8.632 226.596 64.742 296.733 297.812 274.074 442.403zM365.791 457.172c1.079 21.581 0 42.082-3.237 61.505-5.395 29.134 1.079 53.952 18.344 76.611 2.158 3.237 4.316 6.474 6.474 9.711l1.079 2.158c1.079 1.079 1.079 3.237 1.079 4.316l1.079 6.474-5.395 1.079c-6.474 1.079-14.027 2.158-20.502 3.237-14.027 2.158-28.055 5.395-42.082 8.632-80.927 21.581-129.484 73.374-146.748 154.301-5.395 28.055-8.632 57.189-10.79 88.481-1.079 10.79 4.316 20.502 12.948 26.976 9.711 6.474 21.581 8.632 32.371 4.316 3.237-1.079 7.553-6.474 8.632-11.869 3.237-11.869 5.395-24.818 7.553-36.687 3.237-20.502 7.553-41.003 14.027-60.426 21.581-69.058 70.137-105.745 144.59-110.061 20.502-1.079 45.319-1.079 70.137 10.79 37.766 17.264 78.769 29.134 121.93 32.371 121.93 11.869 197.463-88.481 209.332-159.697 12.948-73.374 0-146.748-38.845-223.359-48.556-96.034-129.484-154.301-247.098-175.882-67.979-12.948-124.089-12.948-175.882 0-37.766 9.711-70.137 25.897-98.192 50.714-6.474 5.395-17.264 7.553-24.818 5.395-29.134-8.632-47.477-26.976-57.189-53.952-18.344-50.714-28.055-103.587-29.134-157.538 0-17.264-10.79-26.976-26.976-26.976-9.711 0-20.502 4.316-26.976 10.79-5.395 5.395-7.553 10.79-7.553 17.264 1.079 75.532 14.027 139.195 41.003 196.384 20.502 44.24 53.952 66.9 99.271 66.9 0 0 1.079 0 1.079 0 5.395 0 10.79 3.237 15.106 6.474l2.158 1.079c6.474 4.316 14.027 9.711 20.502 14.027 14.027 9.711 26.976 19.423 42.082 24.818 56.11 21.581 86.322 64.742 90.639 131.642z" />
<glyph unicode="&#xe90f;" horiz-adv-x="843" d="M396.004 212.232c7.553 0 14.027-1.079 21.581-1.079 132.721 0 255.73 78.769 280.548 182.356 1.079 8.632-1.079 16.185-7.553 22.66-10.79 11.869-32.371 19.423-59.347 19.423 0 0 0 0 0 0h-152.143c-2.158 0-5.395 0-7.553 0-15.106 0-24.818 0-42.082-10.79-7.553-4.316-14.027-16.185-17.264-20.502-4.316-7.553-6.474-15.106-8.632-23.739-5.395-22.66-11.869-46.398-58.268-63.663-2.158-1.079-55.031-18.344-55.031-50.714 0-22.66 32.371-48.556 105.745-53.952z" />
<glyph unicode="&#xe910;" horiz-adv-x="790" d="M789.355 227.248l-2.058 12.35c-4.117 25.729-9.262 53.516-18.525 78.215-17.495 44.253-50.428 74.098-90.565 86.448 21.612 14.408 36.020 38.078 36.020 65.865 0 21.612-8.233 42.195-23.67 57.632s-34.991 23.67-56.603 23.67v0c-43.224 0-79.244-34.991-80.273-79.244 0-21.612 8.233-41.166 22.641-56.603 4.117-4.117 8.233-7.204 13.379-10.291-3.087-1.029-7.204-2.058-10.291-3.087-1.029 0-4.117 1.029-6.175 2.058-3.087 2.058-6.175 5.146-9.262 9.262-2.058 2.058-4.117 5.146-6.175 7.204l-36.020 43.224c-5.146 6.175-15.437 7.204-21.612 2.058s-7.204-15.437-2.058-21.612l37.049-44.253c0 0 1.029-1.029 1.029-1.029 2.058-2.058 4.117-4.117 5.146-6.175 4.117-5.146 9.262-10.291 15.437-14.408 8.233-5.146 21.612-9.262 32.933-5.146 63.807 22.641 125.556-4.117 150.255-65.865 9.262-22.641 13.379-47.341 17.495-72.040l2.058-13.379c1.029-4.117 0-7.204-1.029-8.233s-3.087-2.058-5.146-2.058c-2.058 0-5.146 0-6.175 1.029s-3.087 3.087-4.117 11.321c-3.087 29.845-7.204 58.661-25.729 85.419-4.117 5.146-10.291 8.233-16.466 6.175s-10.291-7.204-11.321-14.408v-3.087c0-2.058 0-5.146 0-7.204-2.058-52.486-2.058-104.973-3.087-156.43-1.029-53.516-2.058-108.060-3.087-162.605 0-1.029 0-3.087 0-3.087-2.058 0-5.146 0-9.262 0-2.058 0-3.087 0-3.087 0 0 1.029 0 2.058 0 4.117-1.029 33.962-4.117 68.953-7.204 101.885-2.058 24.699-4.117 49.399-5.146 74.098-1.029 16.466-9.262 27.787-21.612 27.787-14.408 0-22.641-14.408-22.641-28.816-2.058-26.758-6.175-54.545-9.262-81.303-4.117-30.874-9.262-61.749-10.291-93.652 0-3.087 0-4.117-1.029-5.146-1.029 0-2.058 0-4.117 0-4.117 0-7.204 0-9.262 0 0 1.029 0 2.058 0 4.117-2.058 56.603-1.029 115.264 1.029 170.838 1.029 53.516 2.058 109.089 1.029 163.634 0 14.408-5.146 25.729-16.466 34.991-13.379 12.35-25.729 24.699-37.049 38.078-1.029 2.058-3.087 4.117-4.117 5.146-9.262 12.35-20.583 25.729-41.166 30.874-8.233 2.058-16.466-3.087-18.525-11.321s3.087-16.466 11.321-18.525c11.321-3.087 17.495-10.291 25.729-20.583 2.058-2.058 3.087-4.117 5.146-6.175 11.321-14.408 24.699-27.787 40.137-41.166 4.117-4.117 5.146-6.175 6.175-13.379 1.029-53.516 0-109.089-1.029-162.605-7.204-55.574-8.233-114.235-7.204-171.867 1.029-30.874 17.495-33.962 39.108-34.991 1.029 0 1.029 0 2.058 0 15.437 0 33.962 6.175 34.991 34.991 1.029 29.845 6.175 59.69 10.291 89.536 2.058-29.845 5.146-60.72 6.175-90.565 1.029-28.816 19.554-34.991 36.020-33.962 22.641 0 39.108 3.087 40.137 33.962 2.058 54.545 3.087 109.089 3.087 162.605 0 22.641 1.029 45.282 1.029 67.924 2.058-5.146 5.146-9.262 9.262-12.35 5.146-4.117 14.408-9.262 28.816-8.233 10.291 1.029 20.583 6.175 25.729 14.408 5.146 7.204 10.291 18.525 7.204 33.962zM633.954 520.555v0c13.379 0 25.729-5.146 34.991-14.408s14.408-21.612 14.408-34.991c0-26.758-21.612-48.37-48.37-48.37v0c-13.379 0-25.729 5.146-34.991 14.408s-14.408 21.612-14.408 34.991c-1.029 26.758 21.612 48.37 48.37 48.37z" />
<glyph unicode="&#xe911;" horiz-adv-x="790" d="M511.485 461.893c-1.029 45.282-9.262 89.536-26.758 132.76-36.020 90.565-93.652 145.11-173.926 161.576 31.904 18.525 53.516 53.516 53.516 93.652 0 29.845-11.321 57.632-31.904 78.215s-48.37 31.904-77.186 31.904c-59.69 0-108.060-49.399-108.060-109.089 0-28.816 11.321-56.603 31.904-77.186 6.175-6.175 13.379-12.35 21.612-16.466-29.845-6.175-56.603-18.525-80.273-36.020-101.885-78.215-117.323-192.45-120.41-272.724-1.029-15.437 5.146-30.874 16.466-42.195 11.321-12.35 27.787-18.525 43.224-18.525 24.699 0 45.282 15.437 54.545 39.108-1.029-34.991-3.087-73.069-5.146-111.148-5.146-130.702-11.321-265.52-8.233-313.889v-3.087c2.058-46.312 13.379-53.516 56.603-53.516 2.058 0 4.117 0 6.175 0 37.049 1.029 43.224 17.495 48.37 44.253 11.321 61.749 29.845 183.188 41.166 268.607 6.175-82.332 16.466-197.596 24.699-252.141 1.029-6.175 1.029-11.321 2.058-15.437 5.146-44.253 20.583-46.312 63.807-45.282h2.058c26.758 0 41.166 14.408 43.224 41.166 3.087 52.486 3.087 223.325 4.117 374.609 0 26.758 0 52.486 0 76.157 6.175-28.816 24.699-39.108 36.020-42.195 1.029 0 2.058 0 3.087-1.029 28.816-4.117 46.312 5.146 55.574 14.408 23.67 19.554 23.67 50.428 23.67 53.516zM256.257 918.834c0 0 0 0 0 0 18.525 0 34.991-7.204 47.341-19.554 13.379-13.379 19.554-29.845 19.554-48.37v0c0-37.049-29.845-66.894-66.894-66.894 0 0 0 0 0 0-18.525 0-34.991 7.204-48.37 19.554-12.35 12.35-19.554 29.845-19.554 48.37 0 36.020 30.874 66.894 67.924 66.894zM461.057 439.252c-4.117-4.117-11.321-5.146-21.612-4.117-4.117 2.058-6.175 8.233-7.204 19.554-2.058 49.399-11.321 91.594-28.816 129.672-2.058 4.117-3.087 7.204-5.146 11.321-2.058 3.087-4.117 5.146-5.146 7.204l-2.058 1.029c-5.146 6.175-13.379 8.233-21.612 6.175s-13.379-9.262-14.408-17.495c0-2.058 0-3.087-1.029-4.117-1.029-4.117-1.029-7.204-1.029-10.291-1.029-43.224-1.029-127.614-1.029-218.179-1.029-150.255-1.029-320.064-4.117-372.551 0-1.029 0-1.029 0-2.058-1.029 0-1.029 0-2.058 0h-2.058c-8.233 0-16.466 0-21.612 0 0 3.087-1.029 6.175-1.029 9.262-1.029 5.146-1.029 10.291-2.058 16.466-12.35 84.39-29.845 313.889-30.874 338.589-1.029 10.291-9.262 18.525-19.554 19.554l-22.641 1.029c-11.321 1.029-20.583-8.233-21.612-19.554-1.029-21.612-36.020-261.403-52.486-355.055-1.029-3.087-1.029-7.204-2.058-10.291-1.029 0-3.087 0-6.175 0-6.175 0-14.408 0-19.554 0 0 4.117-1.029 9.262-1.029 14.408v3.087c-2.058 47.341 3.087 181.13 8.233 309.773 4.117 107.031 9.262 206.858 8.233 253.17 0 4.117 0 9.262 0 15.437v11.321c0 9.262-5.146 16.466-14.408 19.554-8.233 3.087-17.495 0-22.641-7.204-16.466-20.583-25.729-43.224-31.904-71.011-6.175-28.816-9.262-56.603-12.35-84.39-1.029-12.35-9.262-21.612-18.525-21.612-5.146 0-10.291 2.058-13.379 6.175s-5.146 8.233-5.146 13.379c4.117 115.264 36.020 189.363 103.944 240.82 31.904 24.699 72.040 34.991 121.439 32.933 84.39-4.117 143.051-50.428 179.071-140.993 15.437-38.078 22.641-78.215 23.67-118.352 1.029-5.146-1.029-16.466-8.233-22.641z" />
<glyph unicode="&#xe912;" horiz-adv-x="788" d="M763.867 483.823c37.477 101.408 30.863 199.509-16.534 290.997-72.749 137.783-217.145 206.123-376.973 179.668-158.726-26.454-273.361-152.112-286.588-313.042-2.205-28.659-8.818-55.113-20.943-83.772-17.636-41.886-34.17-84.874-50.704-126.76l-5.511-14.329c-9.92-25.352-5.511-41.886 0-50.704s18.738-18.738 46.295-18.738c7.716 0 16.534 0 25.352 0h3.307v-27.557c0-16.534 0-33.068 0-49.602 1.102-84.874 58.42-145.498 142.192-151.010 35.272-2.205 70.545-1.102 101.408 0 6.614 0 7.716 0 9.92-7.716 13.227-42.988 28.659-85.976 40.784-124.555l8.818-26.454c3.307-8.818 6.614-17.636 15.432-22.045 3.307-1.102 6.614-2.205 9.92-2.205 5.511 0 11.023 2.205 16.534 3.307 96.999 34.17 193.998 68.34 292.099 102.51 7.716 3.307 17.636 7.716 20.943 16.534 3.307 9.92 0 19.841-4.409 27.557l-1.102 3.307c-8.818 17.636-18.738 36.375-26.454 55.113-35.272 83.772-33.068 159.828 7.716 230.372 17.636 33.068 34.17 69.442 48.499 109.124zM652.538 143.225v0c5.511-16.534 12.125-31.966 19.841-47.397l1.102-2.205c1.102-3.307 3.307-7.716 4.409-11.023l-250.213-87.079-38.579 115.737c-3.307 11.023-7.716 23.147-12.125 35.272-4.409 15.432-15.432 23.147-31.966 23.147v0c-31.966 0-65.033 0-96.999 0h-12.125c-61.727 0-102.51 40.784-102.51 102.51 0 13.227 0 25.352 0 38.579v5.511c0 16.534 0 33.068 0 49.602 0 23.147-8.818 31.966-33.068 33.068-12.125 0-25.352 0-38.579 0h-8.818c0 1.102 1.102 3.307 1.102 4.409l24.25 59.522c16.534 40.784 31.966 81.567 48.499 121.249 3.307 8.818 5.511 17.636 5.511 26.454 2.205 153.214 102.51 271.156 251.315 294.304 186.282 28.659 305.326-84.874 341.701-209.429 20.943-70.545 14.329-144.396-17.636-217.145-12.125-28.659-27.557-61.727-44.090-92.59-39.681-73.851-44.090-153.214-11.023-242.497z" />
<glyph unicode="&#xe913;" horiz-adv-x="788" d="M610.652 782.536c-45.193 45.193-103.612 69.442-166.441 69.442h-1.102c-128.964 0-235.884-102.51-239.191-227.066-1.102-67.238 23.147-130.067 68.34-176.362 44.090-45.193 102.51-69.442 166.441-70.545 65.033 0 126.76 25.352 171.953 70.545 44.090 44.090 69.442 102.51 69.442 164.237 1.102 63.931-24.25 124.555-69.442 169.748zM573.175 482.721c-36.375-35.272-83.772-54.011-132.271-52.909-103.612 1.102-187.384 85.976-186.282 188.487 1.102 49.602 20.943 95.897 57.318 131.169 35.272 34.17 82.67 52.909 131.169 52.909h2.205c101.408-1.102 185.18-88.181 184.078-188.487 0-50.704-19.841-96.999-56.215-131.169z" />
<glyph unicode="&#xe914;" horiz-adv-x="788" d="M442.006 746.161v0c-35.272 0-69.442-14.329-94.794-39.681-24.25-24.25-37.477-56.215-37.477-89.283 0-74.954 57.318-131.169 131.169-131.169 36.375 0 69.442 14.329 94.794 39.681 24.25 24.25 37.477 56.215 37.477 90.385 0 35.272-14.329 67.238-38.579 92.59-24.25 23.147-57.318 37.477-92.59 37.477zM442.006 535.63c-22.045 0-41.886 8.818-57.318 23.147-15.432 15.432-24.25 36.375-23.147 58.42 0 19.841 8.818 38.579 23.147 52.909 15.432 15.432 36.375 24.25 58.42 24.25 44.090 0 80.465-36.375 80.465-79.363s-37.477-79.363-81.567-79.363z" />
<glyph unicode="&#xe915;" horiz-adv-x="788" d="M443.109 654.674v0c-11.023 0-22.045-4.409-29.761-12.125s-11.023-17.636-11.023-27.557c0-22.045 17.636-38.579 40.784-38.579 9.92 0 20.943 4.409 28.659 12.125s12.125 17.636 12.125 27.557c-1.102 19.841-20.943 38.579-40.784 38.579z" />
<glyph unicode="&#xe916;" d="M513.41 960c279.273-2.821 510.59-218.623 510.59-519.052 0-272.22-220.033-509.179-521.873-504.948-282.094 4.231-509.179 234.138-502.127 528.926 5.642 258.116 217.212 493.664 513.41 495.074zM956.298 446.59c0 246.832-197.466 444.298-442.887 444.298-245.421 1.41-444.298-196.055-444.298-441.477-1.41-246.832 197.466-445.708 444.298-445.708 244.011 1.41 442.887 198.876 442.887 442.887z" />
<glyph unicode="&#xe917;" d="M266.579 531.218c0 0 0 0 0 0-29.62 0-56.419-11.284-76.165-31.030s-31.030-46.545-31.030-76.165c0-57.829 47.956-104.375 105.785-104.375 0 0 1.41 0 1.41 0 57.829 0 104.375 47.956 104.375 107.196 1.41 57.829-46.545 104.375-104.375 104.375zM208.749 426.843c1.41 31.030 28.209 57.829 59.24 57.829s57.829-26.799 57.829-59.24c0-31.030-26.799-56.419-57.829-56.419 0 0 0 0 0 0-15.515 0-29.62 7.052-40.904 18.336-12.694 9.873-18.336 23.978-18.336 39.493z" />
<glyph unicode="&#xe918;" d="M758.832 531.218c0 0 0 0 0 0-59.24 0-105.785-46.545-105.785-104.375s46.545-105.785 104.375-107.196c0 0 1.41 0 1.41 0 28.209 0 53.598 11.284 73.344 31.030 21.157 19.747 32.441 46.545 32.441 74.755 0 57.829-47.956 105.785-105.785 105.785zM798.325 384.529c-11.284-11.284-25.388-16.926-40.904-16.926 0 0 0 0 0 0-32.441 0-57.829 25.388-57.829 57.829s25.388 57.829 57.829 57.829v0c31.030 0 57.829-25.388 57.829-57.829 0-15.515-5.642-29.62-16.926-40.904z" />
<glyph unicode="&#xe919;" d="M513.41 531.218c0 0 0 0 0 0-59.24 0-105.785-45.135-105.785-104.375 0-57.829 46.545-105.785 104.375-107.196 0 0 1.41 0 1.41 0 26.799 0 53.598 11.284 73.344 31.030 21.157 19.747 32.441 46.545 32.441 74.755 0 57.829-47.956 105.785-105.785 105.785zM552.904 385.939c-11.284-11.284-25.388-16.926-40.904-16.926 0 0 0 0 0 0-32.441 0-57.829 25.388-57.829 57.829 0 15.515 5.642 29.62 16.926 40.904s25.388 16.926 40.904 16.926c0 0 0 0 0 0 31.030 0 57.829-25.388 57.829-57.829 0-15.515-5.642-31.030-16.926-40.904z" />
<glyph unicode="&#xe91a;" horiz-adv-x="1144" d="M1142.237 219.119c-9.763 129.085-41.22 253.831-94.373 368.814-24.949 54.237-60.746 122.576-120.407 173.559-54.237 45.559-100.881 66.169-145.356 64-55.322-3.254-87.864-37.966-97.627-104.136-4.339-29.288-7.593-59.661-10.847-86.78l-3.254-27.119c-6.508 4.339-14.102 9.763-20.61 15.186v286.373l-1.085 3.254c-4.339 17.356-26.034 47.729-75.932 47.729s-72.678-30.373-77.017-47.729l-1.085-2.169v-286.373c-7.593-5.424-14.102-10.847-21.695-15.186-1.085 9.763-2.169 18.441-3.254 28.203v1.085c-3.254 28.203-6.508 56.407-10.847 85.695-8.678 66.169-41.22 100.881-96.542 104.136-44.475 2.169-91.119-18.441-145.356-64-59.661-50.983-96.542-119.322-121.492-172.475-52.068-118.237-83.525-241.898-93.288-372.068-3.254-43.39-5.424-100.881 5.424-155.119 18.441-91.119 54.237-143.186 174.644-123.661 45.559 7.593 90.034 22.78 129.085 35.797 177.898 58.576 176.814 229.966 176.814 232.136l4.339 241.898c9.763 13.017 36.881 42.305 80.271 42.305s70.508-29.288 80.271-42.305l4.339-240.814c0-2.169-1.085-173.559 176.814-232.136 37.966-13.017 83.525-28.203 129.085-35.797 18.441-3.254 34.712-4.339 48.814-4.339 70.508 0 107.39 37.966 125.831 129.085 9.763 53.153 7.593 109.559 4.339 152.949zM700.746 463.186v0l-3.254 6.508c-2.169 3.254-43.39 70.508-124.746 70.508s-123.661-68.339-124.746-70.508l-3.254-5.424-4.339-256c0-1.085 1.085-137.763-143.186-185.492-36.881-13.017-79.186-27.119-121.492-33.627-84.61-14.102-103.051 7.593-118.237 85.695-9.763 48.814-7.593 101.966-4.339 142.102 6.508 122.576 36.881 240.814 87.864 351.458 22.78 48.814 55.322 111.729 108.475 156.203 41.22 34.712 77.017 53.153 107.39 53.153 1.085 0 3.254 0 4.339 0 20.61-1.085 43.39-6.508 50.983-61.831 4.339-28.203 7.593-58.576 10.847-84.61l1.085-5.424c1.085-11.932 3.254-23.864 4.339-36.881 0-3.254 1.085-7.593 2.169-11.932l-107.39-85.695c-10.847-8.678-11.932-23.864-4.339-34.712 4.339-5.424 11.932-9.763 19.525-9.763 5.424 0 10.847 2.169 15.186 5.424l118.237 93.288c6.508 4.339 11.932 8.678 18.441 11.932 16.271 10.847 32.542 21.695 46.644 33.627l9.763 7.593v301.559c2.169 3.254 9.763 10.847 29.288 10.847s27.119-7.593 29.288-10.847v-301.559l9.763-7.593c15.186-11.932 30.373-22.78 47.729-33.627 6.508-4.339 11.932-8.678 18.441-13.017l17.356-11.932 101.966-81.356c4.339-3.254 9.763-5.424 15.186-5.424 7.593 0 14.102 3.254 19.525 8.678 8.678 10.847 6.508 26.034-4.339 34.712l-109.559 86.78c1.085 4.339 1.085 7.593 1.085 10.847 1.085 11.932 3.254 23.864 4.339 36.881l1.085 4.339c3.254 27.119 6.508 56.407 10.847 85.695 7.593 54.237 30.373 60.746 50.983 61.831 30.373 1.085 68.339-16.271 110.644-53.153 53.153-44.475 85.695-106.305 108.475-156.203 50.983-109.559 81.356-227.797 90.034-351.458 3.254-40.136 5.424-93.288-4.339-142.102-15.186-78.102-33.627-99.797-118.237-85.695-42.305 7.593-84.61 21.695-121.492 33.627-149.695 49.898-149.695 182.237-149.695 188.746l-4.339 253.831z" />
<glyph unicode="&#xe91b;" horiz-adv-x="1144" d="M391.593 424.136c-36.881 16.271-79.186-14.102-84.61-18.441-9.763-7.593-11.932-20.61-4.339-30.373s20.61-11.932 30.373-4.339c8.678 6.508 30.373 17.356 40.136 13.017 6.508-2.169 10.847-15.186 11.932-32.542 1.085-10.847 10.847-19.525 21.695-19.525 1.085 0 1.085 0 2.169 0 11.932 1.085 20.61 10.847 19.525 22.78-2.169 36.881-15.186 59.661-36.881 69.424z" />
<glyph unicode="&#xe91c;" horiz-adv-x="1144" d="M257.085 401.356c16.271 36.881-14.102 79.186-18.441 84.61-7.593 9.763-20.61 11.932-30.373 4.339s-11.932-20.61-4.339-30.373c6.508-8.678 17.356-30.373 13.017-40.136-2.169-6.508-15.186-10.847-32.542-11.932-10.847-1.085-19.525-10.847-19.525-21.695 0-1.085 0-1.085 0-2.169 1.085-11.932 10.847-20.61 22.78-19.525 36.881 2.169 59.661 15.186 69.424 36.881z" />
<glyph unicode="&#xe91d;" horiz-adv-x="1144" d="M245.153 327.593c-37.966-14.102-45.559-66.169-46.644-72.678-2.169-11.932 6.508-22.78 18.441-24.949s22.78 6.508 24.949 18.441c1.085 10.847 8.678 34.712 19.525 37.966 6.508 2.169 17.356-3.254 30.373-14.102 8.678-7.593 21.695-6.508 29.288 1.085 0 0 1.085 1.085 1.085 1.085 7.593 8.678 6.508 22.78-2.169 30.373-28.203 23.864-53.153 31.458-74.847 22.78z" />
<glyph unicode="&#xe91e;" horiz-adv-x="1144" d="M839.593 375.322c7.593 9.763 5.424 22.78-4.339 30.373-4.339 3.254-47.729 34.712-84.61 18.441-21.695-9.763-34.712-32.542-36.881-68.339-1.085-11.932 7.593-22.78 19.525-22.78 1.085 0 1.085 0 2.169 0 10.847 0 20.61 8.678 21.695 19.525 1.085 17.356 5.424 29.288 11.932 32.542 9.763 4.339 31.458-6.508 40.136-13.017 9.763-7.593 22.78-6.508 30.373 3.254z" />
<glyph unicode="&#xe91f;" horiz-adv-x="1144" d="M956.746 406.78c-17.356 1.085-29.288 5.424-32.542 11.932-4.339 9.763 6.508 31.458 13.017 40.136 7.593 9.763 5.424 22.78-4.339 30.373s-22.78 5.424-30.373-4.339c-3.254-4.339-34.712-47.729-18.441-84.61 9.763-21.695 32.542-34.712 68.339-36.881 11.932-1.085 22.78 7.593 22.78 19.525 0 1.085 0 1.085 0 2.169 2.169 11.932-6.508 21.695-18.441 21.695z" />
<glyph unicode="&#xe920;" horiz-adv-x="1144" d="M898.169 327.593c-22.78 8.678-47.729 1.085-74.847-21.695-8.678-7.593-9.763-21.695-2.169-30.373 0 0 1.085-1.085 1.085-1.085 7.593-7.593 20.61-8.678 29.288-1.085 13.017 10.847 24.949 16.271 30.373 14.102 9.763-4.339 17.356-27.119 19.525-37.966 2.169-11.932 13.017-20.61 24.949-18.441s20.61 13.017 18.441 24.949c-1.085 4.339-8.678 57.492-46.644 71.593z" />
<glyph unicode="&#xe921;" horiz-adv-x="1885" d="M1877.632 465.037c-147.054 163.194-315.629 297.695-514.69 392.743-261.828 125.534-527.243 136.294-796.245 25.107-211.615-87.874-389.156-218.788-548.764-389.156-25.107-26.9-23.313-68.147 1.793-93.254 50.214-48.42 98.634-96.841 148.848-139.881 157.814-134.501 333.562-240.308 536.21-292.315 193.681-50.214 385.569-37.66 572.077 35.867s349.702 184.715 494.963 319.215c43.040 39.454 112.981 116.567 112.981 125.534 0 5.38-3.587 12.553-7.173 16.14zM1176.434 836.259c213.408-69.94 394.536-184.715 557.73-333.562 32.28-28.694 32.28-78.907 0-107.601-19.727-19.727-41.247-37.66-62.767-55.594-118.361-95.047-243.895-175.748-383.776-236.722-242.102-104.014-480.616-96.841-719.131 5.38-141.674 60.974-269.002 145.261-385.569 243.895-12.553 10.76-34.074 30.487-53.8 50.214-26.9 26.9-26.9 69.94 1.793 96.841 164.988 150.641 349.702 269.002 566.697 331.769 265.415 68.147 478.823 5.38 478.823 5.38z" />
<glyph unicode="&#xe922;" horiz-adv-x="1885" d="M932.539-10.2c-251.068 0-455.51 204.441-455.51 455.51s204.441 453.716 455.51 453.716 455.51-204.441 455.51-455.51-206.235-453.716-455.51-453.716zM932.539 827.292c-211.615 0-383.776-172.161-383.776-383.776s172.161-383.776 383.776-383.776 383.776 172.161 383.776 383.776-172.161 383.776-383.776 383.776z" />
<glyph unicode="&#xe923;" horiz-adv-x="1885" d="M1050.9 452.483c-60.974 0-109.394 50.214-109.394 109.394 0 44.834 26.9 82.494 64.56 100.427-19.727 7.173-43.040 8.967-64.56 8.967-121.947 0-220.581-98.634-220.581-220.581s98.634-220.581 220.581-220.581c121.947 0 220.581 98.634 220.581 220.581 0 23.313-3.587 44.834-8.967 64.56-19.727-35.867-57.387-62.767-102.221-62.767z" />
</font>
</defs>
</svg>
