<svg id="Isolation_Mode" data-name="Isolation Mode" xmlns="http://www.w3.org/2000/svg" viewBox="0 0 553.36 455.91"><defs><style>.cls-1{fill:#f0f2f2;}.cls-2{fill:#e4e6e8;}.cls-3{fill:#ced2d4;}</style></defs><title>Pattern</title><path class="cls-1" d="M439.78,311.67a7.39,7.39,0,0,0,2.25-6.31l56-10a11.62,11.62,0,0,0,16.76,7.9l17,30.23a7.87,7.87,0,1,0,.66-.37l-17-30.23a11.94,11.94,0,0,0,2-1.5,11.65,11.65,0,0,0,.45-16.46,11.5,11.5,0,0,0-1.51-1.33l25.21-36.32a9.93,9.93,0,1,0-.62-.43l-25.21,36.32a11.63,11.63,0,0,0-17.84,11.45l-56,10a7.41,7.41,0,1,0-2.12,7.06Z" transform="translate(-17.74 -8.14)"/><path class="cls-1" d="M278,343.56a3.53,3.53,0,0,0,1.07-3l26.72-4.79a5.54,5.54,0,0,0,8,3.77L321.95,354a3.75,3.75,0,1,0,.31-.18l-8.12-14.42a5.55,5.55,0,0,0,1.15-8.57,5.67,5.67,0,0,0-.72-.63l12-17.33a4.51,4.51,0,1,0-.86-.7,4.6,4.6,0,0,0,.56.5l-12,17.33a5.55,5.55,0,0,0-8.51,5.46L279,340.19a3.53,3.53,0,1,0-1,3.37Z" transform="translate(-17.74 -8.14)"/><path class="cls-1" d="M299.36,233.65a10,10,0,0,0,14.08-.12,9.84,9.84,0,0,0,2.38-4.1l24.69,5a5.85,5.85,0,0,0,6.5,6.12l4.29,16.09a9.85,9.85,0,0,0-3.66,2.33,10,10,0,1,0,5.45-2.81l-4.29-16.07a5.92,5.92,0,1,0-7.94-7.48l-24.67-5a9.94,9.94,0,1,0-16.84,6Z" transform="translate(-17.74 -8.14)"/><path class="cls-1" d="M290.07,305.66a7.67,7.67,0,0,0-4.49-.21l-2.1-5.73A9.36,9.36,0,0,0,285,283.39l4.42-7.34a6.06,6.06,0,0,0,.69.33,5.86,5.86,0,1,0-1.63-.93l-4.44,7.37a9.66,9.66,0,0,0-1.21-.54,9.38,9.38,0,0,0-11.77,5.19l-15.18-5.39a5.77,5.77,0,1,0-.37,1l15.18,5.39a9.36,9.36,0,0,0,11.7,11.58l2.09,5.71a7.71,7.71,0,1,0,5.54-.15Z" transform="translate(-17.74 -8.14)"/><path class="cls-1" d="M234.76,61.28a9.81,9.81,0,0,0,8.71-1.78l49.78,56.71a15.41,15.41,0,0,0,2.52,24.44L273.1,180.71a10.57,10.57,0,0,0-1.92-.74,10.46,10.46,0,1,0,2.79,1.24l22.66-40A15.38,15.38,0,0,0,319.16,129l58.52,3.73a12.53,12.53,0,1,0,.44-3,12.84,12.84,0,0,0-.37,2.05L319.22,128A15.43,15.43,0,0,0,294,115.55L244.22,58.84a9.82,9.82,0,1,0-9.46,2.43Z" transform="translate(-17.74 -8.14)"/><path class="cls-2" d="M464.94,435.4a15.21,15.21,0,0,0-8.7-1.87L454,421.62a18.56,18.56,0,0,0,8.41-31.39l11-12.89a11.62,11.62,0,0,0,1.24.86,11.61,11.61,0,1,0-2.88-2.35l-11.09,12.94a18.94,18.94,0,0,0-2.19-1.45,18.58,18.58,0,0,0-24.71,6.28L405.94,378.1a11.43,11.43,0,1,0-1.07,1.93l27.91,15.52A18.55,18.55,0,0,0,451.84,422l2.22,11.85a15.27,15.27,0,1,0,10.88,1.52Z" transform="translate(-17.74 -8.14)"/><path class="cls-2" d="M357.33,139.67a13,13,0,0,0-13,13,12.85,12.85,0,0,0,1.53,6l-27.65,17.94a7.66,7.66,0,0,0-11.68.25l-18.76-11.08a12.9,12.9,0,0,0,1.28-5.53,13.11,13.11,0,1,0-2.5,7.62L305.26,179a7.75,7.75,0,1,0,14.26-.3l27.63-17.93a13,13,0,1,0,10.17-21.07Z" transform="translate(-17.74 -8.14)"/><path class="cls-1" d="M167.34,347.35a13,13,0,0,0,17.87,4.45,12.84,12.84,0,0,0,4.36-4.41l29.63,14.44a7.66,7.66,0,0,0,6.24,9.88l.18,21.79a13,13,0,1,0,2.42,0l-.18-21.76a7.75,7.75,0,1,0-7.61-12.07L190.63,345.2a13,13,0,1,0-23.3,2.14Z" transform="translate(-17.74 -8.14)"/><path class="cls-1" d="M425.66,58.59A13,13,0,0,0,407.29,60a12.87,12.87,0,0,0-2.76,5.55l-32.66-4.44a7.66,7.66,0,0,0-9-7.43l-7-20.63a13,13,0,1,0-2.29.78l7,20.61a7.75,7.75,0,1,0,11,9.08l32.64,4.44a13,13,0,1,0,21.45-9.33Z" transform="translate(-17.74 -8.14)"/><path class="cls-1" d="M119.77,72.63a13,13,0,0,0,18-3.95,12.88,12.88,0,0,0,1.95-5.89l33-.2a7.66,7.66,0,0,0,10,6.09l9.83,19.45a12.88,12.88,0,0,0-4.06,4A13.11,13.11,0,1,0,194.63,87l-9.82-19.42a7.75,7.75,0,1,0-12.18-7.44l-32.94.2a13,13,0,1,0-19.93,12.26Z" transform="translate(-17.74 -8.14)"/><path class="cls-3" d="M412.32,265.85a13,13,0,0,0,17.87,4.45,12.84,12.84,0,0,0,4.36-4.41l29.63,14.44a7.66,7.66,0,0,0,6.24,9.88l.18,21.79a13,13,0,1,0,2.42,0l-.18-21.76a7.75,7.75,0,1,0-7.61-12.07l-29.61-14.44a13,13,0,1,0-23.3,2.14Z" transform="translate(-17.74 -8.14)"/><path class="cls-2" d="M139.43,230.45a13,13,0,0,0,17.87,4.45,12.84,12.84,0,0,0,4.36-4.41l29.63,14.44a7.66,7.66,0,0,0,6.24,9.88l.18,21.79a13,13,0,1,0,2.42,0l-.18-21.76a7.67,7.67,0,0,0,2.72-1,7.75,7.75,0,1,0-10.33-11.08l-29.61-14.44a13,13,0,1,0-23.3,2.14Z" transform="translate(-17.74 -8.14)"/><path class="cls-2" d="M569.27,210a5.57,5.57,0,0,0-7.74-1.47,5.5,5.5,0,0,0-1.76,2l-13-5.46a3.27,3.27,0,0,0-2.9-4.07l-.6-9.29a5.56,5.56,0,1,0-1,.07l.6,9.28a3.31,3.31,0,1,0,2.59,6,3.26,3.26,0,0,0,.95-1l13,5.46a5.56,5.56,0,1,0,9.89-1.47Z" transform="translate(-17.74 -8.14)"/><path class="cls-1" d="M300,446a8.7,8.7,0,0,0,10.46-6.47,8.61,8.61,0,0,0-.08-4.14L331.06,428a5.11,5.11,0,0,0,7.63,1.62l10.5,10.07a8.68,8.68,0,1,0,1.12-1.17l-10.48-10.06a5.17,5.17,0,1,0-9.32-2L309.8,433.9A8.68,8.68,0,1,0,300,446Z" transform="translate(-17.74 -8.14)"/><path class="cls-1" d="M450.32,136.64a5.57,5.57,0,0,0,7.7,1.67,5.48,5.48,0,0,0,1.8-1.94l12.85,5.78a3.27,3.27,0,0,0,2.8,4.14l.36,9.31a5.57,5.57,0,1,0,1,0l-.36-9.29a3.31,3.31,0,1,0-2.44-6,3.27,3.27,0,0,0-1,1l-12.84-5.78a5.56,5.56,0,1,0-9.93,1.22Z" transform="translate(-17.74 -8.14)"/><path class="cls-1" d="M388.58,278.8a5.57,5.57,0,0,0-.7,7.84A5.5,5.5,0,0,0,390,288.2l-4.15,13.46a3.27,3.27,0,0,0-3.76,3.29l-9.19,1.51a5.58,5.58,0,1,0,.17,1l9.18-1.51a3.31,3.31,0,1,0,5.68-3.16,3.28,3.28,0,0,0-1.09-.84L391,288.5a5.56,5.56,0,1,0-2.44-9.7Z" transform="translate(-17.74 -8.14)"/><path class="cls-1" d="M298.82,386.16a5.57,5.57,0,0,0-7.79,1.18,5.49,5.49,0,0,0-1,2.46L276,389a3.27,3.27,0,0,0-4.09-2.87l-3.65-8.57a5.51,5.51,0,0,0,1.84-1.58,5.6,5.6,0,1,0-2.79,2l3.65,8.56a3.31,3.31,0,1,0,4.43,4.77,3.27,3.27,0,0,0,.56-1.25l14.06.83a5.56,5.56,0,1,0,8.84-4.67Z" transform="translate(-17.74 -8.14)"/><path class="cls-2" d="M272.41,375.6a9.81,9.81,0,0,0-3.78-8L312,305.81a15.41,15.41,0,0,0,23.16-8.21l44.27,12.57a10.46,10.46,0,1,0,.27-1l-44.26-12.57a15.63,15.63,0,0,0,.45-3.25,15.37,15.37,0,0,0-17.62-15.76l-10.18-57.75a13.44,13.44,0,1,0-1,.17l10.18,57.75a15.43,15.43,0,0,0-6.1,27.44L267.81,367a9.82,9.82,0,1,0,4.6,8.62Z" transform="translate(-17.74 -8.14)"/><path class="cls-1" d="M540.08,211.6a5.22,5.22,0,0,0-4.31-1.94l-3.89-40a8.2,8.2,0,0,0,6.5-11.34l22.23-10.26a5.57,5.57,0,1,0-.22-.48l-22.23,10.26a8.19,8.19,0,0,0-13.52-1.73l-24.12-19.79a7.14,7.14,0,1,0-.34.41l24.12,19.79a8.21,8.21,0,0,0,7,13.2l3.89,40a5.17,5.17,0,0,0-2.51,1.09,5.23,5.23,0,1,0,7.35.79Z" transform="translate(-17.74 -8.14)"/><path class="cls-2" d="M401.76,239.35a21.3,21.3,0,0,0-4-11.79l12.66-11.27a26,26,0,0,0,43.73-12.61l23.45,3.93a16.45,16.45,0,0,0-.13,2.11,16.26,16.26,0,1,0,.73-5.15l-23.54-3.94a26.37,26.37,0,0,0,.16-3.68,26,26,0,0,0-25.39-25.1l-1.56-44.69a16,16,0,1,0-3.09.11l1.56,44.7a26,26,0,0,0-18,42l-12.61,11.23a21.39,21.39,0,1,0,6,14.14Z" transform="translate(-17.74 -8.14)"/><path class="cls-3" d="M151.83,181.43A27.59,27.59,0,0,0,159.07,167L181,168.45a33.69,33.69,0,0,0,51.38,29L250,222.7A21.35,21.35,0,0,0,248,224.5a21.08,21.08,0,1,0,5.43-4l-17.74-25.35a33.49,33.49,0,0,0,3.69-49.47l39.92-42a20.76,20.76,0,1,0-2.9-2.76l-39.92,42a33.68,33.68,0,0,0-55.18,21.54L159.42,163a27.73,27.73,0,1,0-7.59,18.44Z" transform="translate(-17.74 -8.14)"/><path class="cls-2" d="M274.27,343.9a17.53,17.53,0,0,0,8.77-5.36l11.34,8.18a21.43,21.43,0,0,0,17.95,33l1,19.58a13.88,13.88,0,0,0-1.73.27,13.41,13.41,0,1,0,4.28-.33l-1-19.65a21.3,21.3,0,0,0,18.66-25.45l35.7-9.23a13.2,13.2,0,1,0-.64-2.47l-35.7,9.23a21.42,21.42,0,0,0-37-7l-11.29-8.15a17.63,17.63,0,1,0-10.31,7.39Z" transform="translate(-17.74 -8.14)"/><path class="cls-2" d="M524.71,233.81a7.09,7.09,0,0,0,4.15-.05l2.25,5.18a8.65,8.65,0,0,0-.56,15.14l-3.68,7a5.33,5.33,0,1,0,.9.5l3.69-7a8.6,8.6,0,0,0,11.72-5l14.3,4.15a5.33,5.33,0,1,0,.29-1l-14.3-4.15a8.65,8.65,0,0,0-11.42-10l-2.24-5.16a7.12,7.12,0,1,0-5.1.44Z" transform="translate(-17.74 -8.14)"/><path class="cls-3" d="M535.07,122.4a7.08,7.08,0,0,0-4-.93l-1-5.56a8.65,8.65,0,0,0,4.11-14.58l5.23-5.94a5.68,5.68,0,0,0,.57.41,5.42,5.42,0,1,0-1.33-1.11l-5.25,6a8.61,8.61,0,0,0-12.57,2.09l-12.92-7.4a5.33,5.33,0,1,0-.51.89l12.92,7.4A8.65,8.65,0,0,0,529,116.09l1,5.54a7.12,7.12,0,1,0,5.06.77Z" transform="translate(-17.74 -8.14)"/><path class="cls-2" d="M55.07,289.9a7.08,7.08,0,0,0-4-.93l-1-5.56a8.65,8.65,0,0,0,4.11-14.58l5.23-5.95a5.52,5.52,0,0,0,.57.41,5.42,5.42,0,1,0-1.33-1.11l-5.25,6a8.61,8.61,0,0,0-12.57,2.09l-12.92-7.4a5.33,5.33,0,1,0-.51.89l12.92,7.4A8.65,8.65,0,0,0,49,283.59l1,5.54a7.12,7.12,0,1,0,5.06.77Z" transform="translate(-17.74 -8.14)"/><path class="cls-3" d="M539.07,437.4a7.08,7.08,0,0,0-4-.93l-1-5.56a8.65,8.65,0,0,0,4.11-14.58l5.23-5.95a5.52,5.52,0,0,0,.57.41,5.42,5.42,0,1,0-1.33-1.11l-5.25,6a8.61,8.61,0,0,0-12.57,2.09l-12.92-7.4a5.33,5.33,0,1,0-.51.89l12.92,7.4A8.65,8.65,0,0,0,533,431.09l1,5.54a7.12,7.12,0,1,0,5.06.77Z" transform="translate(-17.74 -8.14)"/><path class="cls-2" d="M61.26,107.28a7.08,7.08,0,0,0,.64-4.1l5.48-1.35a8.65,8.65,0,0,0,14.83,3.08l6.3,4.8a5.33,5.33,0,1,0,.65-.8l-6.32-4.82a8.61,8.61,0,0,0-3-12.39l6.48-13.4a5.32,5.32,0,1,0-.93-.45L79,91.25a8.65,8.65,0,0,0-11.82,9.58l-5.46,1.34a7.12,7.12,0,1,0-.42,5.1Z" transform="translate(-17.74 -8.14)"/></svg>