<?xml version="1.0" encoding="utf-8"?>
<!-- Generator: Adobe Illustrator 22.0.1, SVG Export Plug-In . SVG Version: 6.00 Build 0)  -->
<svg version="1.1" id="Capa_1" xmlns="http://www.w3.org/2000/svg" xmlns:xlink="http://www.w3.org/1999/xlink" x="0px" y="0px"
	 viewBox="0 0 86 74.8" style="enable-background:new 0 0 86 74.8;" xml:space="preserve">
<style type="text/css">
	.st0{fill:#F39100;}
</style>
<path class="st0" d="M75.4,47.2h-6.2V41c0-2-1.6-3.6-3.6-3.6c-2,0-3.6,1.6-3.6,3.6v6.2h-6.2c-2,0-3.6,1.6-3.6,3.6
	c0,2,1.6,3.6,3.6,3.6H62v6.2c0,2,1.6,3.6,3.6,3.6c2,0,3.6-1.6,3.6-3.6v-6.2h6.2c2,0,3.6-1.6,3.6-3.6C79,48.8,77.4,47.2,75.4,47.2z"
	/>
<g>
	<path d="M79,7c-9.3-9.3-24.5-9.3-33.9,0L43,9.2l-1.8-1.8c-4.6-4.6-11.1-7.3-17.7-7.2C17,0.2,11,2.8,6.6,7.3
		c-9,9.3-8.8,24.4,0.3,33.5l32.5,32.5c1,1,2.2,1.5,3.6,1.5c1.4,0,2.6-0.5,3.6-1.5l9.1-9.1c1-1,1-2.6,0-3.5c-1-1-2.6-1-3.5,0L43,69.8
		L10.5,37.3c-7.2-7.2-7.4-19.1-0.3-26.5c3.4-3.6,8.2-5.6,13.3-5.6c5.3-0.1,10.5,2,14.2,5.8l5.3,5.3l5.7-5.7c7.4-7.4,19.4-7.4,26.8,0
		c7.4,7.4,7.4,19.4,0,26.8c-1,1-1,2.6,0,3.5c1,1,2.6,1,3.5,0C88.4,31.5,88.4,16.3,79,7z"/>
	<path d="M16,16.3c-1.2-0.7-2.7-0.4-3.4,0.8c-2.2,3.5-3.9,12.2,5,20c0.5,0.4,1.1,0.6,1.6,0.6c0.7,0,1.4-0.3,1.9-0.8
		c0.9-1,0.8-2.6-0.2-3.5c-7.7-6.8-4.4-13-4-13.7C17.6,18.6,17.2,17,16,16.3z"/>
</g>
</svg>
