<?xml version="1.0" encoding="utf-8"?>
<!-- Generator: Adobe Illustrator 22.0.1, SVG Export Plug-In . SVG Version: 6.00 Build 0)  -->
<svg version="1.1" id="Capa_1" xmlns="http://www.w3.org/2000/svg" xmlns:xlink="http://www.w3.org/1999/xlink" x="0px" y="0px"
	 viewBox="0 0 76.8 99.5" style="enable-background:new 0 0 76.8 99.5;" xml:space="preserve">
<style type="text/css">
	.st0{fill:#F39100;}
	.st1{fill:#FFFFFF;}
</style>
<path class="st0" d="M76.7,71.2L76.5,70c-0.4-2.5-0.9-5.2-1.8-7.6c-1.7-4.3-4.9-7.2-8.8-8.4c2.1-1.4,3.5-3.7,3.5-6.4
	c0-2.1-0.8-4.1-2.3-5.6c-1.5-1.5-3.4-2.3-5.5-2.3c0,0,0,0,0,0c-4.2,0-7.7,3.4-7.8,7.7c0,2.1,0.8,4,2.2,5.5c0.4,0.4,0.8,0.7,1.3,1
	c-0.3,0.1-0.7,0.2-1,0.3c-0.1,0-0.4-0.1-0.6-0.2c-0.3-0.2-0.6-0.5-0.9-0.9c-0.2-0.2-0.4-0.5-0.6-0.7l-3.5-4.2
	c-0.5-0.6-1.5-0.7-2.1-0.2c-0.6,0.5-0.7,1.5-0.2,2.1l3.6,4.3c0,0,0.1,0.1,0.1,0.1c0.2,0.2,0.4,0.4,0.5,0.6c0.4,0.5,0.9,1,1.5,1.4
	c0.8,0.5,2.1,0.9,3.2,0.5c6.2-2.2,12.2,0.4,14.6,6.4c0.9,2.2,1.3,4.6,1.7,7l0.2,1.3c0.1,0.4,0,0.7-0.1,0.8c-0.1,0.1-0.3,0.2-0.5,0.2
	c-0.2,0-0.5,0-0.6-0.1c-0.1-0.1-0.3-0.3-0.4-1.1c-0.3-2.9-0.7-5.7-2.5-8.3c-0.4-0.5-1-0.8-1.6-0.6c-0.6,0.2-1,0.7-1.1,1.4l0,0.3
	c0,0.2,0,0.5,0,0.7c-0.2,5.1-0.2,10.2-0.3,15.2c-0.1,5.2-0.2,10.5-0.3,15.8c0,0.1,0,0.3,0,0.3c-0.2,0-0.5,0-0.9,0
	c-0.2,0-0.3,0-0.3,0c0-0.1,0-0.2,0-0.4c-0.1-3.3-0.4-6.7-0.7-9.9c-0.2-2.4-0.4-4.8-0.5-7.2c-0.1-1.6-0.9-2.7-2.1-2.7
	c-1.4,0-2.2,1.4-2.2,2.8c-0.2,2.6-0.6,5.3-0.9,7.9c-0.4,3-0.9,6-1,9.1c0,0.3,0,0.4-0.1,0.5c-0.1,0-0.2,0-0.4,0c-0.4,0-0.7,0-0.9,0
	c0-0.1,0-0.2,0-0.4c-0.2-5.5-0.1-11.2,0.1-16.6c0.1-5.2,0.2-10.6,0.1-15.9c0-1.4-0.5-2.5-1.6-3.4c-1.3-1.2-2.5-2.4-3.6-3.7
	c-0.1-0.2-0.3-0.4-0.4-0.5c-0.9-1.2-2-2.5-4-3c-0.8-0.2-1.6,0.3-1.8,1.1c-0.2,0.8,0.3,1.6,1.1,1.8c1.1,0.3,1.7,1,2.5,2
	c0.2,0.2,0.3,0.4,0.5,0.6c1.1,1.4,2.4,2.7,3.9,4c0.4,0.4,0.5,0.6,0.6,1.3c0.1,5.2,0,10.6-0.1,15.8C53,84.9,52.9,90.6,53,96.2
	c0.1,3,1.7,3.3,3.8,3.4c0.1,0,0.1,0,0.2,0c1.5,0,3.3-0.6,3.4-3.4c0.1-2.9,0.6-5.8,1-8.7c0.2,2.9,0.5,5.9,0.6,8.8
	c0.1,2.8,1.9,3.4,3.5,3.3c2.2,0,3.8-0.3,3.9-3.3c0.2-5.3,0.3-10.6,0.3-15.8c0-2.2,0.1-4.4,0.1-6.6c0.2,0.5,0.5,0.9,0.9,1.2
	c0.5,0.4,1.4,0.9,2.8,0.8c1-0.1,2-0.6,2.5-1.4C76.5,73.8,77,72.7,76.7,71.2z M61.6,42.7C61.6,42.7,61.6,42.7,61.6,42.7
	c1.3,0,2.5,0.5,3.4,1.4c0.9,0.9,1.4,2.1,1.4,3.4c0,2.6-2.1,4.7-4.7,4.7c0,0,0,0,0,0c-1.3,0-2.5-0.5-3.4-1.4
	c-0.9-0.9-1.4-2.1-1.4-3.4C56.8,44.8,59,42.7,61.6,42.7z"/>
<path class="st1" d="M49.7,48.4c-0.1-4.4-0.9-8.7-2.6-12.9c-3.5-8.8-9.1-14.1-16.9-15.7c3.1-1.8,5.2-5.2,5.2-9.1
	c0-2.9-1.1-5.6-3.1-7.6c-2-2-4.7-3.1-7.5-3.1C19,0,14.3,4.8,14.3,10.6c0,2.8,1.1,5.5,3.1,7.5c0.6,0.6,1.3,1.2,2.1,1.6
	c-2.9,0.6-5.5,1.8-7.8,3.5C1.8,30.8,0.3,41.9,0,49.7c-0.1,1.5,0.5,3,1.6,4.1c1.1,1.2,2.7,1.8,4.2,1.8c2.4,0,4.4-1.5,5.3-3.8
	c-0.1,3.4-0.3,7.1-0.5,10.8c-0.5,12.7-1.1,25.8-0.8,30.5l0,0.3c0.2,4.5,1.3,5.2,5.5,5.2c0.2,0,0.4,0,0.6,0c3.6-0.1,4.2-1.7,4.7-4.3
	c1.1-6,2.9-17.8,4-26.1c0.6,8,1.6,19.2,2.4,24.5c0.1,0.6,0.1,1.1,0.2,1.5c0.5,4.3,2,4.5,6.2,4.4l0.2,0c2.6,0,4-1.4,4.2-4
	c0.3-5.1,0.3-21.7,0.4-36.4c0-2.6,0-5.1,0-7.4c0.6,2.8,2.4,3.8,3.5,4.1c0.1,0,0.2,0,0.3,0.1c2.8,0.4,4.5-0.5,5.4-1.4
	C49.7,51.7,49.7,48.7,49.7,48.4z M24.9,4C24.9,4,24.9,4,24.9,4c1.8,0,3.4,0.7,4.6,1.9c1.3,1.3,1.9,2.9,1.9,4.7v0
	c0,3.6-2.9,6.5-6.5,6.5c0,0,0,0,0,0c-1.8,0-3.4-0.7-4.7-1.9c-1.2-1.2-1.9-2.9-1.9-4.7C18.3,7,21.3,4,24.9,4z M44.8,50.6
	c-0.4,0.4-1.1,0.5-2.1,0.4c-0.4-0.2-0.6-0.8-0.7-1.9c-0.2-4.8-1.1-8.9-2.8-12.6c-0.2-0.4-0.3-0.7-0.5-1.1c-0.2-0.3-0.4-0.5-0.5-0.7
	L38,34.6c-0.5-0.6-1.3-0.8-2.1-0.6c-0.8,0.2-1.3,0.9-1.4,1.7c0,0.2,0,0.3-0.1,0.4c-0.1,0.4-0.1,0.7-0.1,1
	c-0.1,4.2-0.1,12.4-0.1,21.2c-0.1,14.6-0.1,31.1-0.4,36.2c0,0.1,0,0.1,0,0.2c-0.1,0-0.1,0-0.2,0l-0.2,0c-0.8,0-1.6,0-2.1,0
	c0-0.3-0.1-0.6-0.1-0.9c-0.1-0.5-0.1-1-0.2-1.6c-1.2-8.2-2.9-30.5-3-32.9c-0.1-1-0.9-1.8-1.9-1.9l-2.2-0.1c-1.1-0.1-2,0.8-2.1,1.9
	c-0.1,2.1-3.5,25.4-5.1,34.5c-0.1,0.3-0.1,0.7-0.2,1c-0.1,0-0.3,0-0.6,0c-0.6,0-1.4,0-1.9,0c0-0.4-0.1-0.9-0.1-1.4l0-0.3
	c-0.2-4.6,0.3-17.6,0.8-30.1c0.4-10.4,0.9-20.1,0.8-24.6c0-0.4,0-0.9,0-1.5l0-1.1c0-0.9-0.5-1.6-1.4-1.9c-0.8-0.3-1.7,0-2.2,0.7
	c-1.6,2-2.5,4.2-3.1,6.9c-0.6,2.8-0.9,5.5-1.2,8.2c-0.1,1.2-0.9,2.1-1.8,2.1c-0.5,0-1-0.2-1.3-0.6C4.2,50.7,4,50.3,4,49.8
	c0.4-11.2,3.5-18.4,10.1-23.4c3.1-2.4,7-3.4,11.8-3.2c8.2,0.4,13.9,4.9,17.4,13.7c1.5,3.7,2.2,7.6,2.3,11.5
	C45.7,48.9,45.5,50,44.8,50.6z"/>
</svg>
