<?xml version="1.0" encoding="utf-8"?>
<!-- Generator: Adobe Illustrator 22.0.1, SVG Export Plug-In . SVG Version: 6.00 Build 0)  -->
<svg version="1.1" id="Capa_1" xmlns="http://www.w3.org/2000/svg" xmlns:xlink="http://www.w3.org/1999/xlink" x="0px" y="0px"
	 viewBox="0 0 72.4 92.9" style="enable-background:new 0 0 72.4 92.9;" xml:space="preserve">
<style type="text/css">
	.st0{fill:#FFFFFF;}
	.st1{fill:#F39100;}
	.st2{fill:#0074C8;}
</style>
<g>
	<g id="stDu0L.tif_1_">
		<g>
			<path class="st0" d="M24,0c4.6,0,9.2,0,13.8,0c2.6,0,3.5,0.9,3.5,3.5C41,15.9,39.5,28.2,37,40.3c-0.5,2.5-0.7,5.1-0.7,7.7
				c-0.1,4.9,0.1,9.7,0.2,14.6c0.1,3.3,1.4,5.6,4.5,7.1c7.8,3.7,15.9,6.4,24.4,7.6c3.5,0.5,5.8,2.3,6.7,5.8c0.8,3.1,0,6-2.6,7.9
				c-1.3,1-3.2,1.7-4.8,1.7c-6,0.2-11.9,0.2-17.9,0c-2-0.1-4-1-6.1-1.4c-2-0.4-4.1-0.9-6.1-1.1c-5.3-0.4-10.5,0.4-15.7,1.9
				c-7.6,2.1-14.6-1-17.6-7.7c-1.9-4.3-1.4-8.7-0.1-13c1.2-3.8,2.7-7.6,3.3-11.5c1.2-7,0.8-14-0.6-21c-2.6-12.5-1.3-24.7,3-36.6
				C7.5,0.7,8.4,0,10,0C14.7,0,19.4,0,24,0z M36.2,5.4c-0.6-0.1-0.7-0.1-0.9-0.1c-7.6,0-15.2,0-22.8,0c-1,0-1.2,0.5-1.5,1.3
				c-3.6,11-4,22.1-1.6,33.3c1.6,7.5,1.5,15.1,0.1,22.7c-0.6,3.4-2,6.7-3.1,10c-0.9,2.6-1.4,5.1-0.9,7.8c1,5.3,6,8.4,11.7,6.9
				c6-1.6,11.9-2.6,18.1-2.1c2.5,0.2,5,0.9,7.5,1.4c1.2,0.3,2.4,1,3.6,1c6.2,0.1,12.4,0.1,18.6,0c1.3,0,2.3-1,2.4-2.3
				c0.1-1.4-0.6-2.3-1.9-2.7c-0.3-0.1-0.7-0.2-1-0.2c-9-1.4-17.6-4.2-25.8-8.1c-4.4-2.1-6.8-5.6-7-10.4c-0.3-6.5-0.2-13.1-0.3-19.7
				c0-0.4,0.1-0.9,0.2-1.3c1.2-7.1,2.6-14.2,3.6-21.3C35.5,16.3,35.7,10.9,36.2,5.4z"/>
			<path class="st0" d="M17.7,70.9c0.8-1.8,1.5-3.8,2.5-5.5c0.7-1.2,1.9-1.3,3.2-0.7c1.2,0.6,1.6,1.9,1.2,3.2
				c-0.2,0.5-0.4,0.9-0.6,1.4c-0.8,1.4-0.8,2.6,0.2,3.9c1,1.3,0.7,2.7-0.4,3.6c-1.1,0.9-2.6,0.7-3.6-0.4c-1.3-1.5-2-3.2-2-5.2
				C18,71,17.9,71,17.7,70.9z"/>
		</g>
	</g>
	<path class="st1" d="M34,47.9c0,0,8.4-1.7,11.2-11.1c2.1-7.3-3-13.1-5.3-15.3c-2.4-2.3-4.6-3.4-4.6-3.4l-0.9,5l-3.4,20.3l0.1,4.7
		C31.1,48.2,31.5,48.4,34,47.9z"/>
	<path class="st2" d="M30.5,43.5c0,0,6.7-1.4,9-7.9c2.5-7.2-5.2-12-5.2-12L31.1,23l-3.8,20.6L30.5,43.5z"/>
	<g>
		<path class="st1" d="M56.4,40c-0.1,0-0.2,0-0.4,0l-5.1-0.7c-1.4-0.2-2.3-1.5-2.1-2.8s1.5-2.3,2.8-2.1l5.1,0.7
			c1.4,0.2,2.3,1.5,2.1,2.8C58.7,39.1,57.6,40,56.4,40z"/>
	</g>
	<g>
		<path class="st1" d="M49.5,26.1c-0.8,0-1.5-0.3-2-1c-0.8-1.1-0.6-2.7,0.5-3.5l4.3-3.2c1.1-0.8,2.7-0.6,3.5,0.5
			c0.8,1.1,0.6,2.7-0.5,3.5L51,25.6C50.6,26,50,26.1,49.5,26.1z"/>
	</g>
	<g>
		<path class="st1" d="M47.9,54.5c-0.8,0-1.5-0.3-2-1L43,49.7c-0.8-1.1-0.6-2.7,0.5-3.5c1.1-0.8,2.7-0.6,3.5,0.5l2.9,3.8
			c0.8,1.1,0.6,2.7-0.5,3.5C48.9,54.4,48.4,54.5,47.9,54.5z"/>
	</g>
</g>
</svg>
