<?xml version="1.0" encoding="utf-8"?>
<!-- Generator: Adobe Illustrator 22.0.1, SVG Export Plug-In . SVG Version: 6.00 Build 0)  -->
<svg version="1.1" id="Layer_1" xmlns="http://www.w3.org/2000/svg" xmlns:xlink="http://www.w3.org/1999/xlink" x="0px" y="0px"
	 viewBox="0 0 31.7 32.2" style="enable-background:new 0 0 31.7 32.2;" xml:space="preserve">
<style type="text/css">
	.st0{fill:#FFFFFF;}
</style>
<path class="st0" d="M20.9,32.2c-4.7,0-10-2.3-14.3-6.5C-0.2,18.8-2,9.3,2.3,3.6l1.6,1.2C0.2,9.7,2,18.2,8.1,24.2
	c6,6,14.4,7.7,19.2,3.9l1.3,1.6C26.4,31.3,23.7,32.2,20.9,32.2z"/>
<path class="st0" d="M30.3,27.3l-7.6-7.6l-1.4,1.4c-1.4,1.4-3.3,2.2-5.4,2.2c-2,0-3.9-0.8-5.4-2.2c-3-3-3-7.8,0-10.7L12,9L4.5,1.4
	L5.9,0l9,9l-2.8,2.8c-2.2,2.2-2.2,5.7,0,7.9c1.1,1.1,2.5,1.6,3.9,1.6c1.5,0,2.9-0.6,3.9-1.6l2.8-2.8l9,9L30.3,27.3z"/>
</svg>
